<svg xmlns="http://www.w3.org/2000/svg" version="1.1" xmlns:xlink="http://www.w3.org/1999/xlink" xmlns:svgjs="http://svgjs.dev/svgjs" width="2000" height="616" viewBox="0 0 2000 616"><g transform="matrix(1,0,0,1,-1.2121212121210192,-1.9005456107045688)"><svg viewBox="0 0 396 122" data-background-color="#ffffff" preserveAspectRatio="xMidYMid meet" height="616" width="2000" xmlns="http://www.w3.org/2000/svg" xmlns:xlink="http://www.w3.org/1999/xlink"><g id="tight-bounds" transform="matrix(1,0,0,1,0.23999999999995225,0.3764067605616219)"><svg viewBox="0 0 395.52 121.24718647887676" height="121.24718647887676" width="395.52"><g><svg viewBox="0 0 623.8446336468245 191.24040915661175" height="121.24718647887676" width="395.52"><g transform="matrix(1,0,0,1,228.3246336468245,56.34871521660374)"><svg viewBox="0 0 395.52 78.54297872340426" height="78.54297872340426" width="395.52"><g id="textblocktransform"><svg viewBox="0 0 395.52 78.54297872340426" height="78.54297872340426" width="395.52" id="textblock"><g><svg viewBox="0 0 395.52 78.54297872340426" height="78.54297872340426" width="395.52"><g transform="matrix(1,0,0,1,0,0)"><svg width="395.52" viewBox="5.75 -35.7 183.29 36.400000000000006" height="78.54297872340426" data-palette-color="#6575a8"><path d="M9.15 0L5.75 0 7-35.7 7.6-35.7 32.75-5.3 33.05-5.3 31.95-35 35.35-35 34.1 0.7 33.5 0.7 8.35-29.7 8.05-29.7 9.15 0ZM47.6 0L47.6-35 51-35 51-1Q51.95-1 54-1.3L54-1.3 62.3-2.55 62.3 0 47.6 0ZM66.65-17.5L66.65-17.5Q66.65-21.35 68.02-24.68 69.4-28 71.87-30.48 74.35-32.95 77.67-34.33 81-35.7 84.85-35.7L84.85-35.7Q88.7-35.7 92.02-34.33 95.35-32.95 97.82-30.48 100.3-28 101.67-24.68 103.05-21.35 103.05-17.5L103.05-17.5Q103.05-13.65 101.67-10.33 100.3-7 97.82-4.53 95.35-2.05 92.02-0.68 88.7 0.7 84.85 0.7L84.85 0.7Q81 0.7 77.67-0.68 74.35-2.05 71.87-4.53 69.4-7 68.02-10.33 66.65-13.65 66.65-17.5ZM70.45-17.5L70.45-17.5Q70.45-12.4 72.25-8.58 74.05-4.75 77.3-2.63 80.55-0.5 84.85-0.5L84.85-0.5Q89.15-0.5 92.4-2.63 95.65-4.75 97.45-8.6 99.25-12.45 99.25-17.5L99.25-17.5Q99.25-22.55 97.45-26.38 95.65-30.2 92.4-32.35 89.15-34.5 84.85-34.5L84.85-34.5Q80.55-34.5 77.32-32.38 74.1-30.25 72.27-26.43 70.45-22.6 70.45-17.5ZM140.24-16.6L130.99-16.6 130.99-17.8 143.64-17.8 143.64-4.2Q141.34-1.9 138.02-0.6 134.69 0.7 130.59 0.7L130.59 0.7Q126.39 0.7 122.84-0.68 119.29-2.05 116.64-4.53 113.99-7 112.52-10.3 111.04-13.6 111.04-17.5L111.04-17.5Q111.04-21.4 112.52-24.7 113.99-28 116.64-30.48 119.29-32.95 122.84-34.33 126.39-35.7 130.59-35.7L130.59-35.7Q132.39-35.7 134.52-35.45 136.64-35.2 138.59-34.77 140.54-34.35 141.89-33.75L141.89-33.75 141.64-30.95 141.34-30.95Q139.34-32.7 136.54-33.6 133.74-34.5 130.59-34.5L130.59-34.5Q125.89-34.5 122.34-32.38 118.79-30.25 116.82-26.43 114.84-22.6 114.84-17.5L114.84-17.5Q114.84-12.4 116.82-8.58 118.79-4.75 122.34-2.63 125.89-0.5 130.59-0.5L130.59-0.5Q133.49-0.5 135.97-1.3 138.44-2.1 140.24-3.6L140.24-3.6 140.24-16.6ZM152.64-17.5L152.64-17.5Q152.64-21.35 154.02-24.68 155.39-28 157.87-30.48 160.34-32.95 163.67-34.33 166.99-35.7 170.84-35.7L170.84-35.7Q174.69-35.7 178.02-34.33 181.34-32.95 183.82-30.48 186.29-28 187.67-24.68 189.04-21.35 189.04-17.5L189.04-17.5Q189.04-13.65 187.67-10.33 186.29-7 183.82-4.53 181.34-2.05 178.02-0.68 174.69 0.7 170.84 0.7L170.84 0.7Q166.99 0.7 163.67-0.68 160.34-2.05 157.87-4.53 155.39-7 154.02-10.33 152.64-13.65 152.64-17.5ZM156.44-17.5L156.44-17.5Q156.44-12.4 158.24-8.58 160.04-4.75 163.29-2.63 166.54-0.5 170.84-0.5L170.84-0.5Q175.14-0.5 178.39-2.63 181.64-4.75 183.44-8.6 185.24-12.45 185.24-17.5L185.24-17.5Q185.24-22.55 183.44-26.38 181.64-30.2 178.39-32.35 175.14-34.5 170.84-34.5L170.84-34.5Q166.54-34.5 163.32-32.38 160.09-30.25 158.27-26.43 156.44-22.6 156.44-17.5Z" opacity="1" transform="matrix(1,0,0,1,0,0)" fill="#000000" class="wordmark-text-0" data-fill-palette-color="primary" id="text-0"></path></svg></g></svg></g></svg></g></svg></g><g><svg viewBox="0 0 191.24040915661175 191.24040915661175" height="191.24040915661175" width="191.24040915661175"><g><svg></svg></g><g id="icon-0"><svg viewBox="0 0 191.24040915661175 191.24040915661175" height="191.24040915661175" width="191.24040915661175"><g><path d="M0 95.62c0-52.81 42.811-95.62 95.62-95.62 52.81 0 95.62 42.811 95.62 95.62 0 52.81-42.811 95.62-95.62 95.62-52.81 0-95.62-42.811-95.62-95.62zM95.62 184.157c48.898 0 88.537-39.639 88.537-88.537 0-48.898-39.639-88.537-88.537-88.537-48.898 0-88.537 39.639-88.537 88.537 0 48.898 39.639 88.537 88.537 88.537z" data-fill-palette-color="accent" fill="#000000" stroke="transparent"></path></g><g transform="matrix(1,0,0,1,40.28496818411811,71.80040083246347)"><svg viewBox="0 0 110.67047278837553 47.63960749168482" height="47.63960749168482" width="110.67047278837553"><g><svg xmlns="http://www.w3.org/2000/svg" xmlns:xlink="http://www.w3.org/1999/xlink" version="1.1" x="0" y="0" viewBox="6.4 25.6 90.6 38.99999999999999" style="enable-background:new 0 0 100 100;" xml:space="preserve" height="47.63960749168482" width="110.67047278837553" class="icon-dxe-0" data-fill-palette-color="accent" id="dxe-0"><rect x="15.8" y="39.1" width="12" height="12" fill="#000000" data-fill-palette-color="accent"></rect><polygon points="87.8,51.1 75.8,51.1 81.8,39.1 " fill="#000000" data-fill-palette-color="accent"></polygon><polygon points="58.7,51.1 55.6,45.1 58.7,39.1 64.9,39.1 68,45.1 64.9,51.1 " fill="#000000" data-fill-palette-color="accent"></polygon><circle cx="41.8" cy="45.1" r="6.0" fill="#000000" data-fill-palette-color="accent"></circle><path d="M6.4 25.6V64.6H97V25.6zM95 38.9H88V27.6H95zM16 39.2H27.8V50.9H16zM15.7 50.9H8.4V39.2H15.7zM75.7 38.9H68.2V27.6H75.7zM76 27.6H87.8V38.9H76zM36 39.2H47.8V50.9H36zM35.7 50.9H28V39.2H35.8V50.9zM48 39.2H55.5V50.9H48zM55.8 39.2H68V50.9H55.8zM68.2 39.2H75.7V50.9H68.2zM67.9 38.9H55.8V27.6H68V38.9zM55.5 38.9H48V27.6H55.5zM47.7 38.9H36V27.6H47.8V38.9zM35.7 38.9H28V27.6H35.8V38.9zM27.7 38.9H16V27.6H27.8V38.9zM27.7 51.2V62.6H16V51.2zM28 51.2H35.8V62.6H28zM36 51.2H47.8V62.6H36zM48 51.2H55.5V62.6H48zM55.8 51.2H68V62.6H55.8zM68.2 51.2H75.7V62.6H68.2zM76 51.2H87.8V62.6H76zM76 50.9V39.2H87.8V50.9zM88 39.2H95V50.9H88zM15.7 27.6V38.9H8.4V27.6zM8.4 51.2H15.7V62.6H8.4zM88 62.6V51.2H95V62.6z" fill="#000000" data-fill-palette-color="accent"></path></svg></g></svg></g></svg></g></svg></g></svg></g><defs></defs></svg><rect width="395.52" height="121.24718647887676" fill="none" stroke="none" visibility="hidden"></rect></g></svg></g></svg>